<?xml version="1.0" encoding="UTF-8" standalone="no"?>
<!-- Created with Inkscape (http://www.inkscape.org/) -->

<svg
   width="512.0px"
   height="512.0px"
   viewBox="0 0 512.0 512.0"
   version="1.1"
   id="SVGRoot"
   sodipodi:docname="yuzu.svg"
   inkscape:version="1.2.2 (b0a8486541, 2022-12-01)"
   xmlns:inkscape="http://www.inkscape.org/namespaces/inkscape"
   xmlns:sodipodi="http://sodipodi.sourceforge.net/DTD/sodipodi-0.dtd"
   xmlns="http://www.w3.org/2000/svg"
   xmlns:svg="http://www.w3.org/2000/svg">
  <sodipodi:namedview
     id="namedview532"
     pagecolor="#ffffff"
     bordercolor="#000000"
     borderopacity="0.25"
     inkscape:showpageshadow="2"
     inkscape:pageopacity="0.0"
     inkscape:pagecheckerboard="0"
     inkscape:deskcolor="#d1d1d1"
     inkscape:document-units="px"
     showgrid="true"
     inkscape:zoom="4.7521782"
     inkscape:cx="300.91464"
     inkscape:cy="437.37838"
     inkscape:window-width="2048"
     inkscape:window-height="1080"
     inkscape:window-x="0"
     inkscape:window-y="0"
     inkscape:window-maximized="1"
     inkscape:current-layer="layer1">
    <inkscape:grid
       type="xygrid"
       id="grid538" />
  </sodipodi:namedview>
  <defs
     id="defs527" />
  <g
     inkscape:label="Layer 1"
     inkscape:groupmode="layer"
     id="layer1">
    <path
       d="m 394.62535,471.3827 c 12.708,-22.807 19.949,-49.07 19.949,-77.014 0,-87.537 -71.054,-158.582 -158.591,-158.582 -65.023,0 -117.8,-52.777 -117.8,-117.806 0,-65.029789 52.777,-117.8059899 117.8,-117.8059899 141.321,0 256.008,114.6879899 256.008,255.9999899 0,90.235 -46.773,169.613 -117.366,215.208 z M 255.98335,52.936011 c -11.96,0 -21.676,9.7148 -21.676,21.6816 0,11.9655 9.716,21.681597 21.676,21.681597 11.977,0 21.681,-9.716097 21.681,-21.681597 0,-11.9668 -9.704,-21.6816 -21.681,-21.6816 z m 43.363,43.363197 c -11.964,0 -21.682,9.714492 -21.682,21.681492 0,11.966 9.718,21.682 21.682,21.682 11.977,0 21.681,-9.716 21.681,-21.682 0,-11.967 -9.704,-21.681492 -21.681,-21.681492 z m -86.72,0 c -11.966,0 -21.68,9.714492 -21.68,21.681492 0,11.966 9.714,21.682 21.68,21.682 11.966,0 21.681,-9.716 21.681,-21.682 0,-11.967 -9.715,-21.681492 -21.681,-21.681492 z m 43.357,43.363492 c -11.96,0 -21.676,9.715 -21.676,21.68 0,11.967 9.716,21.682 21.676,21.682 11.977,0 21.681,-9.715 21.681,-21.682 0,-11.965 -9.704,-21.68 -21.681,-21.68 z"
       fill="#ff3554"
       id="path60" />
    <path
       d="m 117.35235,40.966411 c -12.704,22.8077 -19.943696,49.070597 -19.943696,77.014289 0,87.537 71.043696,158.582 158.574696,158.582 65.03,0 117.813,52.777 117.813,117.806 0,65.028 -52.783,117.806 -117.813,117.806 -141.305,0 -255.9919924,-114.688 -255.9919924,-256 0,-90.234 46.7638004,-169.614589 117.3609924,-215.208289 z m 138.631,288.357289 c -11.96,0 -21.676,9.716 -21.676,21.682 0,11.967 9.716,21.681 21.676,21.681 11.977,0 21.681,-9.714 21.681,-21.681 0,-11.966 -9.704,-21.682 -21.681,-21.682 z m 43.363,43.363 c -11.964,0 -21.682,9.715 -21.682,21.682 0,11.967 9.718,21.682 21.682,21.682 11.977,0 21.681,-9.715 21.681,-21.682 0,-11.967 -9.704,-21.682 -21.681,-21.682 z m -43.363,43.364 c -11.96,0 -21.676,9.714 -21.676,21.681 0,11.966 9.716,21.682 21.676,21.682 11.977,0 21.681,-9.716 21.681,-21.682 0,-11.967 -9.704,-21.681 -21.681,-21.681 z m -43.358,-43.364 c -11.965,0 -21.68,9.715 -21.68,21.682 0,11.967 9.715,21.682 21.68,21.682 11.967,0 21.682,-9.715 21.682,-21.682 0,-11.967 -9.715,-21.682 -21.682,-21.682 z"
       fill="#3a99ff"
       id="path62" />
  </g>
</svg>
